<svg xmlns="http://www.w3.org/2000/svg" fill="none" viewBox="0 0 128 103">
  <path fill="currentColor" d="M59.5249 89.0427C58.5375 87.9241 57.134 87.3311 55.5583 87.3311C51.9404 87.3311 49.1797 89.5263 49.1797 93.4961C49.1797 97.4659 51.9404 99.661 55.5583 99.661C57.1382 99.661 58.5417 99.0681 59.5249 97.9284V99.333H64.3025V83.9753H59.5249V89.0427ZM56.8063 96.5449C54.7011 96.5449 53.7388 95.073 53.7388 93.4961C53.7388 91.9191 54.7053 90.4472 56.8063 90.4472C59.0627 90.4472 59.9409 91.7845 59.9409 93.4961C59.9409 95.2076 59.0627 96.5449 56.8063 96.5449Z" />
  <path fill="currentColor" d="M22.3376 83.1427H17.56V99.333H22.3376V83.1427Z" />
  <path fill="currentColor" d="M41.6876 87.3353C39.4312 87.3353 38.0487 88.5212 37.5865 89.1352V87.6423H32.8089V99.333H37.5865V92.9073C37.5865 91.5911 38.179 90.6028 39.8219 90.6028C41.4649 90.6028 41.9902 91.6121 41.9902 92.9073V99.333H46.7678V91.8097C46.7678 88.8282 44.9063 87.3353 41.6834 87.3353H41.6876Z" />
  <path fill="currentColor" d="M27.5732 82.2217C26.1278 82.2217 25.0941 83.0543 25.0941 84.501C25.0941 85.9476 26.1236 86.7592 27.5732 86.7592C29.0229 86.7592 30.0482 85.9476 30.0482 84.501C30.0482 83.0543 29.0187 82.2217 27.5732 82.2217Z" />
  <path fill="currentColor" d="M29.96 87.6423H25.1823V99.333H29.96V87.6423Z" />
  <path fill="currentColor" d="M128 90.3379V87.6381H124.58V84.6103H119.802V87.6381H117.634V90.3379H119.802V94.6609C119.802 98.1471 120.852 99.5306 125.26 99.5306C126.16 99.5306 127.189 99.4634 128 99.354V96.1075C125.655 96.3052 124.58 96.3052 124.58 94.6609V90.3379H128Z" />
  <path fill="currentColor" d="M108.452 87.3353C104.835 87.3353 100.801 88.9796 100.801 93.5003C100.801 98.021 104.835 99.6652 108.452 99.6652C112.07 99.6652 116.079 98.021 116.079 93.5003C116.079 88.9796 112.045 87.3353 108.452 87.3353ZM108.452 96.5491C106.217 96.5491 105.385 95.0815 105.385 93.5003C105.385 91.9191 106.217 90.4514 108.452 90.4514C110.688 90.4514 111.499 91.9233 111.499 93.5003C111.499 95.0773 110.667 96.5491 108.452 96.5491Z" />
  <path fill="currentColor" d="M8.74847 87.3353C7.16854 87.3353 5.76929 87.9283 4.78183 89.0469V83.9795H0V99.3372H4.77762V97.9326C5.76508 99.0723 7.16854 99.6652 8.74427 99.6652C12.3622 99.6652 15.1439 97.47 15.1439 93.5003C15.1439 89.5305 12.3622 87.3353 8.74427 87.3353H8.74847ZM7.5215 96.5491C5.26505 96.5491 4.36583 95.2118 4.36583 93.5003C4.36583 91.7887 5.26505 90.4514 7.5215 90.4514C9.62668 90.4514 10.5679 91.9233 10.5679 93.5003C10.5679 95.0772 9.62668 96.5491 7.5215 96.5491Z" />
  <path fill="currentColor" d="M92.4304 87.3353C90.8505 87.3353 89.4471 87.9283 88.4638 89.0469V87.6423H83.6862V103H88.4638V97.9326C89.4513 99.0723 90.8547 99.6652 92.4304 99.6652C96.0483 99.6652 98.83 97.4701 98.83 93.5003C98.83 89.5305 96.0483 87.3353 92.4304 87.3353ZM91.2035 96.5491C88.947 96.5491 88.0478 95.2118 88.0478 93.5003C88.0478 91.7887 88.947 90.4514 91.2035 90.4514C93.3087 90.4514 94.2499 91.9233 94.2499 93.5003C94.2499 95.0773 93.3087 96.5491 91.2035 96.5491Z" />
  <path fill="currentColor" d="M71.4921 90.8425C71.4921 90.2496 72.0846 89.9846 73.6603 89.9846C75.236 89.9846 75.8957 90.422 75.8957 91.1916H80.6524C80.6524 88.9544 78.7237 87.3311 73.7023 87.3311C69.2945 87.3311 66.9708 88.6474 66.9708 91.2126C66.9708 93.7778 68.7902 94.2404 72.0552 94.724C74.9041 95.1403 76.3075 95.1613 76.3075 96.0613C76.3075 96.7425 75.5386 96.9822 74.1141 96.9822C72.4922 96.9822 71.4837 96.6752 71.4837 95.5356H66.4834C66.4834 98.3237 68.9625 99.661 73.8914 99.661C78.4715 99.661 81.2574 98.6517 81.2574 95.645C81.2574 92.6382 78.253 92.2891 74.7024 91.8728C74.7165 91.8728 71.4921 91.679 71.4921 90.8425Z" />
  <path fill="currentColor" d="M30.8844 35.5304C31.1701 53.8318 46.066 68.7101 64.3278 68.9919V35.5304H30.8844Z" />
  <path fill="currentColor" d="M99.8175 33.4614V0H66.3867C66.6724 18.2467 81.5894 33.1755 99.8175 33.4614Z" />
  <path fill="currentColor" d="M64.3235 0C46.0913 0.285959 31.1743 15.2147 30.8886 33.4614H64.3151L64.3278 0H64.3235Z" />
  <path fill="currentColor" d="M66.3489 68.9751C84.5644 68.6807 99.4729 53.7603 99.7713 35.5304H66.3783L66.3489 68.9751Z" />
</svg>
  