<svg xmlns="http://www.w3.org/2000/svg" width="86" height="94" fill="none"><path fill="currentColor" d="M86 47c0-5.66-2.424-10.732-6.254-14.315.234-1.078.39-2.194.39-3.31 0-7.305-5.023-13.434-11.766-15.158 0-.176.04-.332.04-.509C68.41 6.15 62.271 0 54.726 0 49.743 0 45.385 2.683 43 6.678 40.615 2.683 36.257 0 31.273 0a13.642 13.642 0 0 0-13.135 9.87c-7.974.705-14.229 7.422-14.229 15.588 0 2.664.704 5.23 1.955 7.52C2.209 36.562 0 41.536 0 47s2.424 10.732 6.255 14.315c-.235 1.078-.391 2.194-.391 3.31 0 7.305 5.023 13.434 11.766 15.157 0 .177-.04.333-.04.51C17.59 87.85 23.729 94 31.274 94c4.984 0 9.342-2.683 11.727-6.678C45.385 91.317 49.743 94 54.727 94a13.642 13.642 0 0 0 13.135-9.87c7.974-.705 14.229-7.422 14.229-15.588 0-2.664-.704-5.23-1.955-7.52C83.791 57.438 86 52.464 86 47ZM31.273 90.083c-5.395 0-9.773-4.386-9.773-9.791 2.854 0 5.63-.784 8.053-2.233.918-.568 1.231-1.762.664-2.683-.547-.92-1.759-1.234-2.677-.666a11.704 11.704 0 0 1-6.04 1.685c-6.47 0-11.727-5.268-11.727-11.75 0-.216.039-.45.039-.666a19.305 19.305 0 0 0 9.734 2.624 1.962 1.962 0 0 0 1.954-1.958c0-1.077-.88-1.959-1.954-1.959-8.62 0-15.637-7.03-15.637-15.666 0-4.798 2.13-9.126 5.57-12.005h.02l.04-.04a15.381 15.381 0 0 1 6.527-3.21 1.944 1.944 0 0 0 1.466-2.35c-.234-1.058-1.29-1.705-2.345-1.47a19.394 19.394 0 0 0-6.235 2.605 11.74 11.74 0 0 1-1.153-5.053c0-6.482 5.257-11.75 11.727-11.75 2.13 0 4.222.588 6.04 1.685.918.568 2.13.254 2.677-.666a1.95 1.95 0 0 0-.664-2.683c-1.662-.999-3.48-1.645-5.375-1.978 1.465-3.643 4.964-6.13 9.05-6.13 5.394 0 9.772 4.387 9.772 9.792v12.377c-4.457 1.704-7.173 1.155-10.34-2.017a1.944 1.944 0 0 0-2.756 0 1.953 1.953 0 0 0 0 2.76c3.07 3.075 6.02 4.153 8.835 4.153 1.446 0 2.873-.314 4.26-.745v10.987c-5.491.43-9.694 2.624-12.293 6.501-2.502-1.645-5.63-2.683-9.206-2.683a1.962 1.962 0 0 0-1.955 1.959c0 1.077.88 1.958 1.955 1.958 6.919 0 11.727 5.15 11.727 9.792 0 1.077.88 1.958 1.955 1.958a1.962 1.962 0 0 0 1.954-1.958c0-2.938-1.25-5.973-3.44-8.421 1.877-3.055 4.984-4.798 9.304-5.19v22.384c-2.6-.94-4.32-.94-5.864-.94a1.962 1.962 0 0 0-1.954 1.958c0 1.078.88 1.959 1.954 1.959 1.642 0 3.108 0 5.864 1.234v8.557c0 5.405-4.378 9.792-9.773 9.792l.02-.059Zm46.909-21.541c0 6.482-5.258 11.75-11.728 11.75-2.13 0-4.221-.588-6.039-1.684-.919-.568-2.13-.255-2.678.665a1.95 1.95 0 0 0 .665 2.683c1.661.999 3.479 1.645 5.375 1.978-1.466 3.643-4.965 6.13-9.05 6.13-5.394 0-9.772-4.387-9.772-9.792V67.895c4.456-1.703 7.173-1.155 10.34 2.017.39.392.879.568 1.387.568a2 2 0 0 0 1.387-.568 1.953 1.953 0 0 0 0-2.76c-4.651-4.662-9.01-4.72-13.114-3.428V52.758c5.492-.431 9.694-2.625 12.294-6.502 2.502 1.645 5.629 2.683 9.205 2.683a1.962 1.962 0 0 0 1.955-1.959c0-1.077-.88-1.958-1.955-1.958-6.918 0-11.727-5.15-11.727-9.792 0-1.077-.88-1.958-1.954-1.958a1.962 1.962 0 0 0-1.955 1.958c0 2.938 1.251 5.973 3.44 8.421-1.876 3.055-4.984 4.798-9.303 5.19V26.457c2.6.94 4.32.94 5.863.94a1.962 1.962 0 0 0 1.955-1.958c0-1.077-.88-1.959-1.955-1.959-1.642 0-3.107 0-5.863-1.233v-8.558c0-5.405 4.378-9.792 9.772-9.792 5.395 0 9.773 4.387 9.773 9.792-2.854 0-5.63.783-8.053 2.232-.918.568-1.231 1.763-.664 2.683.547.92 1.759 1.234 2.678.666a11.704 11.704 0 0 1 6.039-1.684c6.47 0 11.727 5.268 11.727 11.75 0 .215-.039.45-.039.666a19.305 19.305 0 0 0-9.734-2.624 1.962 1.962 0 0 0-1.954 1.958c0 1.077.88 1.958 1.954 1.958 8.62 0 15.637 7.03 15.637 15.667 0 4.798-2.13 9.126-5.57 12.004h-.02l-.04.04a15.382 15.382 0 0 1-6.527 3.211 1.944 1.944 0 0 0-1.466 2.35c.215.901 1.016 1.528 1.896 1.528.136 0 .293 0 .43-.04a19.394 19.394 0 0 0 6.235-2.604 11.74 11.74 0 0 1 1.153 5.052v.04Z"/></svg>