<svg xmlns="http://www.w3.org/2000/svg" width="96" height="96" fill="none"><path fill="currentColor" d="M95.418.583c-.48-.48-1.14-.68-1.8-.54L72.405 4.282c-.38.08-.74.26-1.02.54L50.589 25.607c-4.28.92-11.058 2.578-12.658 4.177l-7.558 7.555c-.7.7-.78 1.779-.22 2.578l6.079 8.515-1.64 1.639c-.38.38-.58.879-.58 1.419 0 .44.16.839.42 1.179l-10.278 7.715a14.02 14.02 0 0 0-13.816-3.898C8.518 53.708 5.398 52.01 2 52.01c-1.1 0-2 .9-2 1.999 0 1.1.9 1.999 2 1.999a5.982 5.982 0 0 1 5.538 3.697c.2.48.6.88 1.08 1.08.5.2 1.04.2 1.54 0 1.22-.5 2.5-.76 3.839-.76 2.6 0 5.079 1.04 6.918 2.798l-2.12 1.599a2.004 2.004 0 0 0-.4 2.798c.4.52 1 .8 1.6.8.42 0 .84-.14 1.2-.4l3.78-2.838 12.217-9.154c.015-.03 3.199 3.198 3.199 3.198L22.395 82.809c-.66.88-.48 2.138.4 2.798.36.26.78.4 1.2.4.6 0 1.2-.28 1.6-.8l8.237-10.972c4.64.879 8.158 4.956 8.158 9.773 0 1.16-.2 2.298-.58 3.358-.24.66-.12 1.379.32 1.918.42.54 1.1.82 1.8.74 2.32-.28 4.46 1.619 4.46 3.977 0 1.1.899 1.999 1.999 1.999s2-.9 2-1.999c0-3.777-2.64-6.955-6.18-7.775.12-.719.18-1.459.18-2.218 0-6.096-3.998-11.373-9.557-13.251l6.878-9.174c.36.26.76.42 1.18.42.52 0 1.02-.2 1.42-.58l1.64-1.639 8.517 6.076c.34.24.76.38 1.16.38.52 0 1.02-.2 1.42-.58l7.558-7.555c1.6-1.599 3.26-8.374 4.179-12.651l20.795-20.787c.28-.28.46-.64.54-1.019l4.24-21.206c.14-.66-.08-1.339-.54-1.799v-.06Zm-45.23 39.574a4.008 4.008 0 0 1 5.66 0c.76.76 1.18 1.759 1.18 2.818 0 1.06-.42 2.079-1.18 2.818L44.53 57.106 38.87 51.45 50.19 40.157Zm16.977 2.818c-.28.28-.46.62-.54 1-.98 4.676-2.54 10.333-3.22 11.232l-6.358 6.356-6.598-4.717 8.218-8.234c1.52-1.5 2.34-3.518 2.34-5.657 0-2.138-.84-4.137-2.34-5.656-3.12-3.118-8.198-3.118-11.318 0l-8.238 8.234-4.719-6.595 6.319-6.316c.94-.72 6.598-2.278 11.277-3.258.38-.08.72-.26 1-.54L73.763 8.059 91.44 4.521 87.9 22.189 67.165 42.975Z"/><path fill="currentColor" d="M81.282 17.552a1.99 1.99 0 0 0 0-2.818c-.78-.78-2.04-.78-2.82 0a1.99 1.99 0 0 0 0 2.818c.78.78 2.04.78 2.82 0ZM72.784 23.208c.78.78 2.039.78 2.819 0a1.99 1.99 0 0 0 0-2.818c-.78-.78-2.04-.78-2.82 0a1.99 1.99 0 0 0 0 2.818ZM67.145 26.026a1.99 1.99 0 0 0 0 2.819c.78.78 2.04.78 2.82 0a1.99 1.99 0 0 0 0-2.819c-.78-.779-2.04-.779-2.82 0ZM61.486 31.683a1.99 1.99 0 0 0 0 2.818c.78.78 2.04.78 2.82 0a1.99 1.99 0 0 0 0-2.818c-.78-.78-2.04-.78-2.82 0ZM80.002 61.963a7.994 7.994 0 0 0-7.998 7.994 7.994 7.994 0 0 0 7.998 7.995A7.994 7.994 0 0 0 88 69.957a7.994 7.994 0 0 0-7.998-7.994Zm0 11.992c-2.2 0-4-1.8-4-3.998a4.01 4.01 0 0 1 4-3.997c2.2 0 3.999 1.799 3.999 3.997a4.01 4.01 0 0 1-4 3.998ZM30.013 13.995h2v1.998c0 1.1.9 1.999 2 1.999 1.099 0 1.999-.9 1.999-1.999v-1.998h2c1.1 0 1.999-.9 1.999-2 0-1.098-.9-1.998-2-1.998h-2V7.998C36.012 6.9 35.113 6 34.013 6s-2 .9-2 1.998v2h-1.999c-1.1 0-2 .899-2 1.998 0 1.1.9 1.998 2 1.998ZM11.437 29.404a1.99 1.99 0 0 0 0-2.818c-.78-.78-2.04-.78-2.819 0a1.99 1.99 0 0 0 0 2.818c.78.78 2.04.78 2.82 0Z"/></svg>