<svg xmlns="http://www.w3.org/2000/svg" xmlns:xlink="http://www.w3.org/1999/xlink"><symbol fill="none" viewBox="0 0 86 94" id="svg-brain_constant-improvement" xmlns="http://www.w3.org/2000/svg"><path fill="currentColor" d="M86 47c0-5.66-2.424-10.732-6.254-14.315.234-1.078.39-2.194.39-3.31 0-7.305-5.023-13.434-11.766-15.158 0-.176.04-.332.04-.509C68.41 6.15 62.271 0 54.726 0 49.743 0 45.385 2.683 43 6.678 40.615 2.683 36.257 0 31.273 0a13.642 13.642 0 0 0-13.135 9.87c-7.974.705-14.229 7.422-14.229 15.588 0 2.664.704 5.23 1.955 7.52C2.209 36.562 0 41.536 0 47s2.424 10.732 6.255 14.315c-.235 1.078-.391 2.194-.391 3.31 0 7.305 5.023 13.434 11.766 15.157 0 .177-.04.333-.04.51C17.59 87.85 23.729 94 31.274 94c4.984 0 9.342-2.683 11.727-6.678C45.385 91.317 49.743 94 54.727 94a13.642 13.642 0 0 0 13.135-9.87c7.974-.705 14.229-7.422 14.229-15.588 0-2.664-.704-5.23-1.955-7.52C83.791 57.438 86 52.464 86 47ZM31.273 90.083c-5.395 0-9.773-4.386-9.773-9.791 2.854 0 5.63-.784 8.053-2.233.918-.568 1.231-1.762.664-2.683-.547-.92-1.759-1.234-2.677-.666a11.704 11.704 0 0 1-6.04 1.685c-6.47 0-11.727-5.268-11.727-11.75 0-.216.039-.45.039-.666a19.305 19.305 0 0 0 9.734 2.624 1.962 1.962 0 0 0 1.954-1.958c0-1.077-.88-1.959-1.954-1.959-8.62 0-15.637-7.03-15.637-15.666 0-4.798 2.13-9.126 5.57-12.005h.02l.04-.04a15.381 15.381 0 0 1 6.527-3.21 1.944 1.944 0 0 0 1.466-2.35c-.234-1.058-1.29-1.705-2.345-1.47a19.394 19.394 0 0 0-6.235 2.605 11.74 11.74 0 0 1-1.153-5.053c0-6.482 5.257-11.75 11.727-11.75 2.13 0 4.222.588 6.04 1.685.918.568 2.13.254 2.677-.666a1.95 1.95 0 0 0-.664-2.683c-1.662-.999-3.48-1.645-5.375-1.978 1.465-3.643 4.964-6.13 9.05-6.13 5.394 0 9.772 4.387 9.772 9.792v12.377c-4.457 1.704-7.173 1.155-10.34-2.017a1.944 1.944 0 0 0-2.756 0 1.953 1.953 0 0 0 0 2.76c3.07 3.075 6.02 4.153 8.835 4.153 1.446 0 2.873-.314 4.26-.745v10.987c-5.491.43-9.694 2.624-12.293 6.501-2.502-1.645-5.63-2.683-9.206-2.683a1.962 1.962 0 0 0-1.955 1.959c0 1.077.88 1.958 1.955 1.958 6.919 0 11.727 5.15 11.727 9.792 0 1.077.88 1.958 1.955 1.958a1.962 1.962 0 0 0 1.954-1.958c0-2.938-1.25-5.973-3.44-8.421 1.877-3.055 4.984-4.798 9.304-5.19v22.384c-2.6-.94-4.32-.94-5.864-.94a1.962 1.962 0 0 0-1.954 1.958c0 1.078.88 1.959 1.954 1.959 1.642 0 3.108 0 5.864 1.234v8.557c0 5.405-4.378 9.792-9.773 9.792l.02-.059Zm46.909-21.541c0 6.482-5.258 11.75-11.728 11.75-2.13 0-4.221-.588-6.039-1.684-.919-.568-2.13-.255-2.678.665a1.95 1.95 0 0 0 .665 2.683c1.661.999 3.479 1.645 5.375 1.978-1.466 3.643-4.965 6.13-9.05 6.13-5.394 0-9.772-4.387-9.772-9.792V67.895c4.456-1.703 7.173-1.155 10.34 2.017.39.392.879.568 1.387.568a2 2 0 0 0 1.387-.568 1.953 1.953 0 0 0 0-2.76c-4.651-4.662-9.01-4.72-13.114-3.428V52.758c5.492-.431 9.694-2.625 12.294-6.502 2.502 1.645 5.629 2.683 9.205 2.683a1.962 1.962 0 0 0 1.955-1.959c0-1.077-.88-1.958-1.955-1.958-6.918 0-11.727-5.15-11.727-9.792 0-1.077-.88-1.958-1.954-1.958a1.962 1.962 0 0 0-1.955 1.958c0 2.938 1.251 5.973 3.44 8.421-1.876 3.055-4.984 4.798-9.303 5.19V26.457c2.6.94 4.32.94 5.863.94a1.962 1.962 0 0 0 1.955-1.958c0-1.077-.88-1.959-1.955-1.959-1.642 0-3.107 0-5.863-1.233v-8.558c0-5.405 4.378-9.792 9.772-9.792 5.395 0 9.773 4.387 9.773 9.792-2.854 0-5.63.783-8.053 2.232-.918.568-1.231 1.763-.664 2.683.547.92 1.759 1.234 2.678.666a11.704 11.704 0 0 1 6.039-1.684c6.47 0 11.727 5.268 11.727 11.75 0 .215-.039.45-.039.666a19.305 19.305 0 0 0-9.734-2.624 1.962 1.962 0 0 0-1.954 1.958c0 1.077.88 1.958 1.954 1.958 8.62 0 15.637 7.03 15.637 15.667 0 4.798-2.13 9.126-5.57 12.004h-.02l-.04.04a15.382 15.382 0 0 1-6.527 3.211 1.944 1.944 0 0 0-1.466 2.35c.215.901 1.016 1.528 1.896 1.528.136 0 .293 0 .43-.04a19.394 19.394 0 0 0 6.235-2.604 11.74 11.74 0 0 1 1.153 5.052v.04Z"/></symbol><symbol viewBox="0 0 32 32" fill="none" id="svg-github" xmlns="http://www.w3.org/2000/svg"><path fill-rule="evenodd" clip-rule="evenodd" d="M16 0C7.16 0 0 7.16 0 16c0 7.08 4.58 13.06 10.94 15.18.8.14 1.1-.34 1.1-.76 0-.38-.02-1.64-.02-2.98-4.02.74-5.06-.98-5.38-1.88-.18-.46-.96-1.88-1.64-2.26-.56-.3-1.36-1.04-.02-1.06 1.26-.02 2.16 1.16 2.46 1.64 1.44 2.42 3.74 1.74 4.66 1.32.14-1.04.56-1.74 1.02-2.14-3.56-.4-7.28-1.78-7.28-7.9 0-1.74.62-3.18 1.64-4.3-.16-.4-.72-2.04.16-4.24 0 0 1.34-.42 4.4 1.64 1.28-.36 2.64-.54 4-.54 1.36 0 2.72.18 4 .54 3.06-2.08 4.4-1.64 4.4-1.64.88 2.2.32 3.84.16 4.24 1.02 1.12 1.64 2.54 1.64 4.3 0 6.14-3.74 7.5-7.3 7.9.58.5 1.08 1.46 1.08 2.96 0 2.14-.02 3.86-.02 4.4 0 .42.3.92 1.1.76A16.028 16.028 0 0 0 32 16c0-8.84-7.16-16-16-16Z" fill="currentColor"/></symbol><symbol viewBox="0 0 19 18.2" fill="none" id="svg-linkedin" xmlns="http://www.w3.org/2000/svg"><path d="M3.9 2c0 1.1-.9 2-2 2S0 3.1 0 2s.9-2 2-2 1.9.9 1.9 2zM4 5.5H0v12.7h4V5.5zm6.3 0h-4v12.7h3.9v-6.6c0-3.7 4.8-4 4.8 0v6.6h4v-8c0-6.2-7.1-6-8.7-2.9V5.5z" fill="currentColor"/></symbol><symbol fill="none" viewBox="0 0 93 93" id="svg-puzzle_collaboration" xmlns="http://www.w3.org/2000/svg"><path fill="currentColor" d="M83.313 0H9.686C4.34 0 0 4.34 0 9.688v73.624C0 88.66 4.34 93 9.688 93h73.624C88.66 93 93 88.66 93 83.312V9.689C93 4.34 88.66 0 83.312 0Zm5.812 9.688v34.874h-15.5a1.943 1.943 0 0 0-1.938 1.938v1.938c0 1.956-1.336 3.68-3.08 4.01-1.182.233-2.344-.058-3.255-.814a3.864 3.864 0 0 1-1.415-2.983V46.5A1.943 1.943 0 0 0 62 44.562H48.437V32.938c3.74-.097 6.917-2.694 7.615-6.24a7.797 7.797 0 0 0-1.628-6.451 7.74 7.74 0 0 0-5.967-2.81V3.876h34.875c3.197 0 5.812 2.616 5.812 5.813h-.019ZM9.687 3.875h34.876v15.5c0 1.066.871 1.938 1.937 1.938h1.938a3.8 3.8 0 0 1 2.983 1.414c.756.91 1.047 2.054.814 3.255-.33 1.763-2.073 3.08-4.01 3.08H46.5A1.943 1.943 0 0 0 44.562 31v13.563H32.938c0-3.837-2.616-7.13-6.24-7.828a7.797 7.797 0 0 0-6.451 1.627 7.74 7.74 0 0 0-2.81 5.968v.213H3.876V9.688c0-3.197 2.616-5.813 5.813-5.813ZM3.875 83.313V48.437h15.5a1.943 1.943 0 0 0 1.938-1.937v-2.15c0-1.163.503-2.248 1.414-2.984.91-.756 2.073-1.027 3.255-.814 1.763.33 3.08 2.054 3.08 4.01V46.5c0 1.066.872 1.938 1.938 1.938h13.563v11.624a7.71 7.71 0 0 0-5.968 2.81 7.797 7.797 0 0 0-1.627 6.452c.678 3.545 3.855 6.142 7.614 6.239v13.562H9.687c-3.196 0-5.812-2.616-5.812-5.813Zm79.438 5.812H48.437v-15.5a1.943 1.943 0 0 0-1.937-1.938h-1.724c-1.957 0-3.682-1.336-4.011-3.08-.233-1.182.058-2.344.814-3.255a3.864 3.864 0 0 1 2.983-1.415H46.5A1.943 1.943 0 0 0 48.438 62V48.437h11.624v.214a7.71 7.71 0 0 0 2.81 5.967 7.797 7.797 0 0 0 6.452 1.628c3.623-.698 6.239-3.972 6.239-7.828h13.562v34.875c0 3.197-2.616 5.813-5.813 5.813v.019Z"/><path fill="currentColor" d="M17.438 31h15.5a1.943 1.943 0 0 0 1.937-1.938v-3.875c0-3.06-2.403-5.56-5.425-5.773A5.765 5.765 0 0 0 31 15.5c0-3.197-2.616-5.812-5.813-5.812-3.196 0-5.812 2.615-5.812 5.812 0 1.511.6 2.887 1.55 3.914-3.023.213-5.425 2.693-5.425 5.773v3.875c0 1.066.872 1.938 1.938 1.938Zm7.75-17.438c1.065 0 1.937.872 1.937 1.938a1.943 1.943 0 0 1-1.938 1.938A1.943 1.943 0 0 1 23.25 15.5c0-1.066.872-1.938 1.938-1.938Zm-5.813 11.626c0-1.066.872-1.938 1.938-1.938h7.75c1.065 0 1.937.872 1.937 1.938v1.937H19.375v-1.938Zm52.7 46.538a5.764 5.764 0 0 0 1.55-3.913c0-3.197-2.616-5.813-5.813-5.813C64.617 62 62 64.616 62 67.813c0 1.51.6 2.886 1.55 3.913-3.022.213-5.425 2.693-5.425 5.774v3.875c0 1.066.872 1.938 1.938 1.938h15.5a1.943 1.943 0 0 0 1.937-1.938V77.5c0-3.061-2.403-5.56-5.425-5.774Zm-4.263-5.851c1.066 0 1.938.872 1.938 1.938a1.943 1.943 0 0 1-1.938 1.937 1.943 1.943 0 0 1-1.937-1.938c0-1.065.872-1.937 1.938-1.937Zm5.813 13.563H62V77.5c0-1.066.872-1.938 1.938-1.938h7.75c1.065 0 1.937.872 1.937 1.938v1.938ZM62 27.125h3.875V31c0 1.066.872 1.938 1.938 1.938A1.943 1.943 0 0 0 69.75 31v-3.875h3.875a1.943 1.943 0 0 0 1.938-1.938 1.943 1.943 0 0 0-1.938-1.937H69.75v-3.875a1.943 1.943 0 0 0-1.938-1.938 1.943 1.943 0 0 0-1.937 1.938v3.875H62a1.943 1.943 0 0 0-1.938 1.938c0 1.065.872 1.937 1.938 1.937Zm-31 38.75h-3.875V62a1.943 1.943 0 0 0-1.938-1.938A1.943 1.943 0 0 0 23.25 62v3.875h-3.875a1.943 1.943 0 0 0-1.938 1.938c0 1.065.872 1.937 1.938 1.937h3.875v3.875c0 1.066.872 1.938 1.938 1.938a1.943 1.943 0 0 0 1.937-1.938V69.75H31a1.943 1.943 0 0 0 1.938-1.938A1.943 1.943 0 0 0 31 65.876Z"/></symbol><symbol fill="none" viewBox="0 0 96 96" id="svg-rocket_efficiency" xmlns="http://www.w3.org/2000/svg"><path fill="currentColor" d="M95.418.583c-.48-.48-1.14-.68-1.8-.54L72.405 4.282c-.38.08-.74.26-1.02.54L50.589 25.607c-4.28.92-11.058 2.578-12.658 4.177l-7.558 7.555c-.7.7-.78 1.779-.22 2.578l6.079 8.515-1.64 1.639c-.38.38-.58.879-.58 1.419 0 .44.16.839.42 1.179l-10.278 7.715a14.02 14.02 0 0 0-13.816-3.898C8.518 53.708 5.398 52.01 2 52.01c-1.1 0-2 .9-2 1.999 0 1.1.9 1.999 2 1.999a5.982 5.982 0 0 1 5.538 3.697c.2.48.6.88 1.08 1.08.5.2 1.04.2 1.54 0 1.22-.5 2.5-.76 3.839-.76 2.6 0 5.079 1.04 6.918 2.798l-2.12 1.599a2.004 2.004 0 0 0-.4 2.798c.4.52 1 .8 1.6.8.42 0 .84-.14 1.2-.4l3.78-2.838 12.217-9.154c.015-.03 3.199 3.198 3.199 3.198L22.395 82.809c-.66.88-.48 2.138.4 2.798.36.26.78.4 1.2.4.6 0 1.2-.28 1.6-.8l8.237-10.972c4.64.879 8.158 4.956 8.158 9.773 0 1.16-.2 2.298-.58 3.358-.24.66-.12 1.379.32 1.918.42.54 1.1.82 1.8.74 2.32-.28 4.46 1.619 4.46 3.977 0 1.1.899 1.999 1.999 1.999s2-.9 2-1.999c0-3.777-2.64-6.955-6.18-7.775.12-.719.18-1.459.18-2.218 0-6.096-3.998-11.373-9.557-13.251l6.878-9.174c.36.26.76.42 1.18.42.52 0 1.02-.2 1.42-.58l1.64-1.639 8.517 6.076c.34.24.76.38 1.16.38.52 0 1.02-.2 1.42-.58l7.558-7.555c1.6-1.599 3.26-8.374 4.179-12.651l20.795-20.787c.28-.28.46-.64.54-1.019l4.24-21.206c.14-.66-.08-1.339-.54-1.799v-.06Zm-45.23 39.574a4.008 4.008 0 0 1 5.66 0c.76.76 1.18 1.759 1.18 2.818 0 1.06-.42 2.079-1.18 2.818L44.53 57.106l-5.66-5.656 11.32-11.293Zm16.977 2.818c-.28.28-.46.62-.54 1-.98 4.676-2.54 10.333-3.22 11.232l-6.358 6.356-6.598-4.717 8.218-8.234c1.52-1.5 2.34-3.518 2.34-5.657 0-2.138-.84-4.137-2.34-5.656-3.12-3.118-8.198-3.118-11.318 0l-8.238 8.234-4.719-6.595 6.319-6.316c.94-.72 6.598-2.278 11.277-3.258.38-.08.72-.26 1-.54L73.763 8.059 91.44 4.521 87.9 22.189 67.165 42.975Z"/><path fill="currentColor" d="M81.282 17.552a1.99 1.99 0 0 0 0-2.818c-.78-.78-2.04-.78-2.82 0a1.99 1.99 0 0 0 0 2.818c.78.78 2.04.78 2.82 0Zm-8.498 5.656c.78.78 2.039.78 2.819 0a1.99 1.99 0 0 0 0-2.818c-.78-.78-2.04-.78-2.82 0a1.99 1.99 0 0 0 0 2.818Zm-5.639 2.818a1.99 1.99 0 0 0 0 2.819c.78.78 2.04.78 2.82 0a1.99 1.99 0 0 0 0-2.819 1.994 1.994 0 0 0-2.82 0Zm-5.659 5.657a1.99 1.99 0 0 0 0 2.818c.78.78 2.04.78 2.82 0a1.99 1.99 0 0 0 0-2.818c-.78-.78-2.04-.78-2.82 0Zm18.516 30.28a7.994 7.994 0 0 0-7.998 7.994 7.994 7.994 0 0 0 7.998 7.995A7.994 7.994 0 0 0 88 69.957a7.994 7.994 0 0 0-7.998-7.994Zm0 11.992c-2.2 0-4-1.8-4-3.998a4.01 4.01 0 0 1 4-3.997 4.01 4.01 0 0 1 3.999 3.997 4.01 4.01 0 0 1-4 3.998Zm-49.989-59.96h2v1.998c0 1.1.9 1.999 2 1.999 1.099 0 1.999-.9 1.999-1.999v-1.998h2c1.1 0 1.999-.9 1.999-2 0-1.098-.9-1.998-2-1.998h-2V7.998C36.012 6.9 35.113 6 34.013 6s-2 .9-2 1.998v2h-1.999c-1.1 0-2 .899-2 1.998 0 1.1.9 1.998 2 1.998ZM11.437 29.404a1.99 1.99 0 0 0 0-2.818 1.99 1.99 0 0 0-2.819 0 1.99 1.99 0 0 0 0 2.818c.78.78 2.04.78 2.82 0Z"/></symbol><symbol viewBox="0 0 31 26" fill="none" id="svg-twitter" xmlns="http://www.w3.org/2000/svg"><path d="M30.524 3.583a12.44 12.44 0 0 1-3.567.977 6.227 6.227 0 0 0 2.731-3.437 12.4 12.4 0 0 1-3.944 1.507A6.213 6.213 0 0 0 15.16 8.296a17.638 17.638 0 0 1-12.802-6.49 6.208 6.208 0 0 0-.84 3.122 6.214 6.214 0 0 0 2.762 5.17 6.196 6.196 0 0 1-2.813-.776v.08a6.214 6.214 0 0 0 4.983 6.09 6.255 6.255 0 0 1-2.806.107 6.215 6.215 0 0 0 5.803 4.312 12.464 12.464 0 0 1-7.715 2.66c-.495 0-.99-.029-1.482-.087a17.567 17.567 0 0 0 9.52 2.79c11.426 0 17.673-9.463 17.673-17.671 0-.267-.007-.536-.019-.803a12.627 12.627 0 0 0 3.098-3.213l.002-.004Z" fill="currentColor"/></symbol></svg>