<svg width="208" height="300" viewBox="0 0 208 300" fill="none" xmlns="http://www.w3.org/2000/svg">
<path fill-rule="evenodd" clip-rule="evenodd" d="M184.138 33.4661L23.3629 33.4661L23.3629 261.595L184.138 261.595L184.138 33.4661ZM182.138 35.4661L182.138 259.595L25.3629 259.595L25.3629 35.4661L182.138 35.4661Z" fill="#BE5DE2"/>
<path fill-rule="evenodd" clip-rule="evenodd" d="M39 24.3394H14.1299L14.1299 46.3145H6.46477e-06V50.0234L14.1299 50.0234V64.3954H6.46477e-06V68.1043H14.1299L14.1299 82.4763H6.46477e-06V86.1852H14.1299V100.557H4.2707e-06L4.16393e-06 104.266H14.1299L14.1299 118.638H3.75021e-06L3.64344e-06 122.347H14.1299V136.719H3.22972e-06L3.12295e-06 140.428H14.1299V154.8H2.70923e-06L2.60246e-06 158.509H14.1299V172.881H2.18873e-06L2.08197e-06 176.59H14.1299V190.962H1.66824e-06L1.56147e-06 194.671H14.1299L14.1299 209.043H1.14775e-06L1.04098e-06 212.751H14.1299V227.123H6.27258e-07L5.20491e-07 230.832H14.1299L14.1299 245.204H1.06767e-07L0 248.913H14.1299V270.703H38.2009V299.648H168.533V270.703H193.334V248.913H207.464V245.204H193.334V230.832H207.464V227.123H193.334V212.751H207.464V209.043H193.334V194.671H207.464V190.962H193.334L193.334 176.59H207.464V172.881H193.334V158.509H207.464V154.8H193.334V140.428H207.464V136.719H193.334V122.347L207.464 122.347V118.638H193.334V104.266L207.464 104.266V100.557H193.334V86.1852H207.464V82.4763L193.334 82.4763V68.1043H207.464V64.3954L193.334 64.3954V50.0235H207.464V46.3146L193.334 46.3145V24.3394H168.665V3.69549e-06L39 0V24.3394ZM166.665 23.933V2L41 2V23.933L166.665 23.933ZM166.533 297.648V271H40.2009V297.648H166.533ZM16.1299 26.3394L191.334 26.3394L191.334 268.703L16.1299 268.703L16.1299 26.3394Z" fill="#BE5DE2"/>
<path fill-rule="evenodd" clip-rule="evenodd" d="M169.157 49.6788H38.305V245.363H169.157V49.6788ZM36.305 47.6788V247.363H171.157V47.6788H36.305Z" fill="#BE5DE2"/>
</svg>
