<svg xmlns="http://www.w3.org/2000/svg" width="93" height="93" fill="none"><path fill="#BE5DE2" d="M83.313 0H9.686C4.34 0 0 4.34 0 9.688v73.624C0 88.66 4.34 93 9.688 93h73.624C88.66 93 93 88.66 93 83.312V9.689C93 4.34 88.66 0 83.312 0Zm5.812 9.688v34.874h-15.5a1.943 1.943 0 0 0-1.938 1.938v1.938c0 1.956-1.336 3.68-3.08 4.01-1.182.233-2.344-.058-3.255-.814a3.864 3.864 0 0 1-1.415-2.983V46.5A1.943 1.943 0 0 0 62 44.562H48.437V32.938c3.74-.097 6.917-2.694 7.615-6.24a7.797 7.797 0 0 0-1.628-6.451 7.74 7.74 0 0 0-5.967-2.81V3.876h34.875c3.197 0 5.812 2.616 5.812 5.813h-.019ZM9.687 3.875h34.876v15.5c0 1.066.871 1.938 1.937 1.938h1.938c1.162 0 2.247.503 2.983 1.414.756.91 1.047 2.054.814 3.255-.33 1.763-2.073 3.08-4.01 3.08H46.5A1.943 1.943 0 0 0 44.562 31v13.563H32.938c0-3.837-2.616-7.13-6.24-7.828a7.797 7.797 0 0 0-6.451 1.627 7.74 7.74 0 0 0-2.81 5.968v.213H3.876V9.688c0-3.197 2.616-5.813 5.813-5.813ZM3.875 83.313V48.437h15.5a1.943 1.943 0 0 0 1.938-1.937v-2.15c0-1.163.503-2.248 1.414-2.984.91-.756 2.073-1.027 3.255-.814 1.763.33 3.08 2.054 3.08 4.01V46.5c0 1.066.872 1.938 1.938 1.938h13.563v11.624a7.71 7.71 0 0 0-5.968 2.81 7.797 7.797 0 0 0-1.627 6.452c.678 3.545 3.855 6.142 7.614 6.239v13.562H9.687c-3.196 0-5.812-2.616-5.812-5.813Zm79.438 5.812H48.437v-15.5a1.943 1.943 0 0 0-1.937-1.938h-1.724c-1.957 0-3.682-1.336-4.011-3.08-.233-1.182.058-2.344.814-3.255a3.864 3.864 0 0 1 2.983-1.415H46.5A1.943 1.943 0 0 0 48.438 62V48.437h11.624v.214a7.71 7.71 0 0 0 2.81 5.967 7.797 7.797 0 0 0 6.452 1.628c3.623-.698 6.239-3.972 6.239-7.828h13.562v34.875c0 3.197-2.616 5.813-5.813 5.813v.019Z"/><path fill="#BE5DE2" d="M17.438 31h15.5a1.943 1.943 0 0 0 1.937-1.938v-3.875c0-3.06-2.403-5.56-5.425-5.773A5.765 5.765 0 0 0 31 15.5c0-3.197-2.616-5.812-5.813-5.812-3.196 0-5.812 2.615-5.812 5.812 0 1.511.6 2.887 1.55 3.914-3.023.213-5.425 2.693-5.425 5.773v3.875c0 1.066.872 1.938 1.938 1.938Zm7.75-17.438c1.065 0 1.937.872 1.937 1.938a1.943 1.943 0 0 1-1.938 1.938A1.943 1.943 0 0 1 23.25 15.5c0-1.066.872-1.938 1.938-1.938Zm-5.813 11.626c0-1.066.872-1.938 1.938-1.938h7.75c1.065 0 1.937.872 1.937 1.938v1.937H19.375v-1.938ZM72.075 71.726a5.764 5.764 0 0 0 1.55-3.913c0-3.197-2.616-5.813-5.813-5.813C64.617 62 62 64.616 62 67.813c0 1.51.6 2.886 1.55 3.913-3.022.213-5.425 2.693-5.425 5.774v3.875c0 1.066.872 1.938 1.938 1.938h15.5a1.943 1.943 0 0 0 1.937-1.938V77.5c0-3.061-2.403-5.56-5.425-5.774Zm-4.263-5.851c1.066 0 1.938.872 1.938 1.938a1.943 1.943 0 0 1-1.938 1.937 1.943 1.943 0 0 1-1.937-1.938c0-1.065.872-1.937 1.938-1.937Zm5.813 13.563H62V77.5c0-1.066.872-1.938 1.938-1.938h7.75c1.065 0 1.937.872 1.937 1.938v1.938ZM62 27.125h3.875V31c0 1.066.872 1.938 1.938 1.938A1.943 1.943 0 0 0 69.75 31v-3.875h3.875a1.943 1.943 0 0 0 1.938-1.938 1.943 1.943 0 0 0-1.938-1.937H69.75v-3.875a1.943 1.943 0 0 0-1.938-1.938 1.943 1.943 0 0 0-1.937 1.938v3.875H62a1.943 1.943 0 0 0-1.938 1.938c0 1.065.872 1.937 1.938 1.937ZM31 65.875h-3.875V62a1.943 1.943 0 0 0-1.938-1.938A1.943 1.943 0 0 0 23.25 62v3.875h-3.875a1.943 1.943 0 0 0-1.938 1.938c0 1.065.872 1.937 1.938 1.937h3.875v3.875c0 1.066.872 1.938 1.938 1.938a1.943 1.943 0 0 0 1.937-1.938V69.75H31a1.943 1.943 0 0 0 1.938-1.938A1.943 1.943 0 0 0 31 65.876Z"/></svg>